<?xml version="1.0" encoding="utf-8"?>
<!-- Generator: Adobe Illustrator 15.1.0, SVG Export Plug-In . SVG Version: 6.00 Build 0)  -->
<!DOCTYPE svg PUBLIC "-//W3C//DTD SVG 1.1//EN" "http://www.w3.org/Graphics/SVG/1.1/DTD/svg11.dtd">
<svg version="1.1" id="Layer_1" xmlns="http://www.w3.org/2000/svg" xmlns:xlink="http://www.w3.org/1999/xlink" x="0px" y="0px"
	 width="612px" height="792px" viewBox="0 0 612 792" enable-background="new 0 0 612 792" xml:space="preserve">
<path fill="#002B5C" d="M256.76,318.69c0,33.841-18.29,50.077-55.547,50.077c-37.26,0-55.719-16.236-55.719-50.077v-74.859h37.602
	v66.485c0,12.478,0,28.029,18.287,28.029c17.774,0,17.774-15.552,17.774-28.029v-66.485h37.603V318.69z"/>
<path fill="#002B5C" d="M278.295,243.831h37.599v122.032h-37.599V243.831z"/>
<path fill="#002B5C" d="M415.191,289.295c-0.684-4.446-4.104-17.947-19.655-17.947c-17.604,0-23.243,17.093-23.243,33.499
	c0,16.409,5.639,33.499,23.243,33.499c12.647,0,17.605-8.886,19.825-20.337h36.918c0,24.61-19.997,50.759-55.716,50.759
	c-39.483,0-61.87-27.856-61.87-63.92c0-38.454,24.268-63.92,61.87-63.92c33.498,0.17,51.954,17.774,55.204,48.369H415.191z"/>
</svg>
